<svg xmlns="http://www.w3.org/2000/svg" viewBox="0 0 800 386"><path d="M91.548 20.746l8.029-.017 8.707.012 9.248-.011h25.035l26.242-.003 44.062.011 50.888-.004 43.749-.005 26.104-.003 29.106.014 8.707-.012 8.029.017 6.945.002c24.003.915 42.997 8.907 60.166 25.689 13.22 15.955 17.542 32.631 17.599 52.857l.029 8.346.013 9.043.017 9.283.02 19.477.072 29.766.016 18.912.037 8.988-.009 8.432.011 7.381C463.289 239.701 455.944 255.425 441 270h-2v2c-24.433 18.88-50.095 19.301-79.735 19.275l-9.037.015-24.453.011c-6.821-.001-13.642.004-20.463.009l-48.309.005c-16.572-.006-33.145.006-49.717.028l-42.789.02c-8.503-.002-17.006.001-25.51.015-9.492.012-18.984.006-28.476-.006l-8.455.023c-28.355-.076-52.932-2.622-75.806-21.02-14.901-15.255-22.609-31.407-23.524-52.766l-.089-23.711-.002-8.788.029-18.352.014-28.071.021-17.852-.003-8.47.029-7.919.014-6.935C3.712 73.204 13.242 56.958 30 39.938c18.464-14.541 38.555-19.184 61.548-19.191z" fill="#242526"/><path d="M480 126c4.007-.092 8.016-.11 12.024-.101l7.881.012 35.852.166 18.92.063 27.213.117 8.537-.002 7.996.069 7.009.029C616.2 127.413 623.888 131.305 633 137v2l4 2c8.721 11.628 11.117 19.394 11.177 33.397l.039 7.9.022 8.582.024 8.782.032 18.433.105 28.213.025 17.885.053 8.539-.009 7.967.018 6.995c-.922 11.928-5.6 20.802-13.425 29.87-14.573 12.774-30.045 13.737-48.598 13.728l-6.29.02-20.592.025-14.322.02-30.028.014c-12.817 0-25.634.027-38.451.062l-29.584.025-14.175.027-19.839.002-5.897.034c-16.273-.075-28.341-2.452-41.286-12.52-4.897-5.427-7.687-9.061-10-16 7.572-.554 14.862-.743 22.438-.687 30.858.066 55.051-4.781 78.563-26.312 15.586-18.184 22.17-36.215 22.098-60.094l-.01-5.994-.025-6.412-.011-6.613L479 176l-.062-27.562-.025-6.461L479 127l1-1z" fill="#919191"/><path d="M91.548 20.746l8.029-.017 8.707.012 9.248-.011h25.035l26.242-.003 44.062.011 50.888-.004 43.749-.005 26.104-.003 29.106.014 8.707-.012 8.029.017 6.945.002c24.003.915 42.997 8.907 60.166 25.689 13.22 15.955 17.542 32.631 17.599 52.857l.029 8.346.013 9.043.017 9.283.02 19.477.072 29.766.016 18.912.037 8.988-.009 8.432.011 7.381C463.289 239.701 455.944 255.425 441 270h-2v2c-24.433 18.88-50.095 19.301-79.735 19.275l-9.037.015-24.453.011c-6.821-.001-13.642.004-20.463.009l-48.309.005c-16.572-.006-33.145.006-49.717.028l-42.789.02c-8.503-.002-17.006.001-25.51.015-9.492.012-18.984.006-28.476-.006l-8.455.023c-28.355-.076-52.932-2.622-75.806-21.02-14.901-15.255-22.609-31.407-23.524-52.766l-.089-23.711-.002-8.788.029-18.352.014-28.071.021-17.852-.003-8.47.029-7.919.014-6.935C3.712 73.204 13.242 56.958 30 39.938c18.464-14.541 38.555-19.184 61.548-19.191zM44 62c-5.151 5.305-5.151 5.305-7 12h-2c-4.142 8.151-4.511 15.09-4.533 24.148l-.048 8.607.015 9.265-.019 9.549.009 19.995-.041 25.561-.011 24.457-.04 9.247.038 8.636.003 7.573c.886 9.817 3.465 17.259 9.628 24.963l3 5 2 2h3l1 3 6 3 7 5c7.942 1.765 14.132 2.254 22.188 2.261l8.17.021 8.941-.008 9.433.015 25.605.011 21.382.009 50.447.005 52.028.028 44.684.02 26.681.015 29.755-.006 8.922.023 8.195-.021 7.104.001c10.503-.609 19.336-3.139 28.465-8.375v-2l5-1c4.534-4.121 7.84-7.733 11-13l3-5v-3h2c1.476-5.902 1.145-11.615 1.161-17.698l.029-8.759.013-9.52.017-9.731.02-20.423.058-26.147.03-24.949.037-9.483-.009-8.816.011-7.756c-.336-6.15-1.129-11-3.367-16.718h-2l-2-6c-8.588-11.79-17.639-17.809-32-21l-1-1-12.009-.14-7.991-.017-8.867-.003-9.262-.015-25.254-.024-15.777-.012-49.358-.027-56.978-.051-44.023-.033-26.296-.025-29.375-.009-8.775-.028C79.47 45.663 61.457 46.584 44 62z" fill="#3254c0"/><path d="M664 213l21.438-.168 6.59-.01 13.851-.007 21.188-.039 13.434-.006 6.412-.022 5.994.009 5.26-.004c11.15.57 19.852 3.727 28.146 11.06 11.258 12.784 11.006 23.927 11.023 40.113l.02 6.568.014 13.761.079 21.055.012 13.365.044 6.364-.019 5.945.009 5.214C797 341 797 341 793 350l-2 6c-13.963 10.251-25.994 12.125-42.911 12.161l-5.303.015-17.419.027-12.085.017-25.366.02-32.504.058-24.975.025-11.982.024-16.768.009-9.64.011c-13.113-.599-21.734-4.055-31.047-13.367v-2h-2l-3-6 1-3c3.797-.289 7.61-.37 11.418-.371l7.182-.053 15.023-.016c17.621-.138 30.643-2.319 46.377-10.561h2v-2l3.938-2.75c10.308-8.654 16.184-20.297 19.063-33.25a597.75 597.75 0 0 0 .379-18.562l.051-5.402.132-17.035.143-17.121.08-10.647L663 214l1-1z" fill="#4463c6"/><path d="M733 116c5.987 4.578 7.946 6.874 11 14 0 10 0 10-4 18-9.693 10.27-19.324 20.441-33 25-9.422 0-15.287-.948-22.875-6.687C680 162 680 162 677 154c0-8.483 2.005-13.805 7.75-20.125C713.514 107.649 713.514 107.649 733 116zm-30.187 18.438L691 146v9c4.209 4.736 4.209 4.736 7 6 8.67 0 11.769-1.183 18.375-6.562L720 151v-2l4-2c6.775-5.547 6.775-5.547 7-14-2.54-6.695-2.54-6.695-10-9-7.821 0-12.764 5.58-18.187 10.438z" fill="#848484"/><path d="M505 14h6l4 4-.937 7.688L515 33c9.35 1.422 9.35 1.422 19 1l3 4-1 6c-3 2-3 2-12.187 1.188L515 46c-1.084 7.289-1.084 7.289 0 15l-5 5-6-1-3-4 .938-7.75L501 46c-8.832-.917-8.832-.917-18 0l-4-4c1-6 1-6 3-8l9.625.875L501 34c1.251-7.831 1.251-7.831 0-16l4-4z" fill="#3452b4"/></svg>
